# xmcd
#
# Track frame offsets:
#	150
#	19845
#	38306
#	56912
#	75087
#	93793
#	111737
#	128063
#	145642
#	160872
#	177556
#	198691
#	223034
#	243321
#
# Disc length: 3504 seconds
#
# Revision: 0
# Processed by: cddbd v1.5.1PL2 Copyright (c) Steve Scherf et al.
# Submitted via: dBpowerAMP V4.0
#
DISCID=ba0dae0e
DTITLE=mary j  blidge - no more pain
DYEAR=1900
DGENRE=Club
TTITLE0=so
TTITLE1=go
TTITLE2=love
TTITLE3=you
TTITLE4=vghh
TTITLE5=dgfh
TTITLE6=dfgddf
TTITLE7=gdhd
TTITLE8=Track0cvbcv9
TTITLE9=vxcvcxccc
TTITLE10=xcvxcv
TTITLE11=cvxccvvxcxc
TTITLE12=nhjhjhjhjhjh
TTITLE13=bvnnbvnbnb
EXTD=Antoine Martin
EXTT0=
EXTT1=
EXTT2=
EXTT3=
EXTT4=
EXTT5=
EXTT6=
EXTT7=
EXTT8=
EXTT9=
EXTT10=
EXTT11=
EXTT12=
EXTT13=
PLAYORDER=
